<?xml version="1.0" encoding="UTF-8" standalone="no"?>
<!DOCTYPE svg PUBLIC "-//W3C//DTD SVG 1.1//EN"
 "http://www.w3.org/Graphics/SVG/1.1/DTD/svg11.dtd">
<!-- Generated by graphviz version 2.30.1 (20130221.2233)
 -->
<!-- Title: G Pages: 1 -->
<svg width="462pt" height="295pt"
 viewBox="0.00 0.00 462.00 295.00" xmlns="http://www.w3.org/2000/svg" xmlns:xlink="http://www.w3.org/1999/xlink">
<g id="graph0" class="graph" transform="scale(1 1) rotate(0) translate(4 291)">
<title>G</title>
<polygon fill="white" stroke="white" points="-4,5 -4,-291 459,-291 459,5 -4,5"/>
<g id="clust1" class="cluster"><title>cluster_global</title>
<path fill="none" stroke="gray" d="M107,-44C107,-44 434,-44 434,-44 440,-44 446,-50 446,-56 446,-56 446,-267 446,-267 446,-273 440,-279 434,-279 434,-279 107,-279 107,-279 101,-279 95,-273 95,-267 95,-267 95,-56 95,-56 95,-50 101,-44 107,-44"/>
<text text-anchor="middle" x="270.5" y="-264" font-family="Times,serif" font-size="11.00" fill="gray">global</text>
</g>
<!-- \\Telesign -->
<g id="node1" class="node"><title>\\Telesign</title>
<g id="a_node1"><a xlink:href="telesign.api.class.html" xlink:title="Telesign" target="_parent">
<polygon fill="none" stroke="black" points="172.309,-223 103.691,-223 103.691,-187 172.309,-187 172.309,-223"/>
<text text-anchor="middle" x="138" y="-200.6" font-family="Courier,monospace" font-size="11.00">Telesign</text>
</a>
</g>
</g>
<!-- \\Verify -->
<g id="node2" class="node"><title>\\Verify</title>
<g id="a_node2"><a xlink:href="telesign.api.class.html" xlink:title="Verify" target="_parent">
<polygon fill="none" stroke="black" points="420.608,-250 365.392,-250 365.392,-214 420.608,-214 420.608,-250"/>
<text text-anchor="middle" x="393" y="-227.6" font-family="Courier,monospace" font-size="11.00">Verify</text>
</a>
</g>
</g>
<!-- \\Verify&#45;&gt;\\Telesign -->
<g id="edge1" class="edge"><title>\\Verify&#45;&gt;\\Telesign</title>
<path fill="none" stroke="black" d="M364.925,-229.111C321.304,-224.455 235.076,-215.253 182.676,-209.661"/>
<polygon fill="none" stroke="black" points="182.985,-206.174 172.67,-208.593 182.242,-213.135 182.985,-206.174"/>
</g>
<!-- \\PhoneId -->
<g id="node3" class="node"><title>\\PhoneId</title>
<g id="a_node3"><a xlink:href="telesign.api.class.html" xlink:title="PhoneId" target="_parent">
<polygon fill="none" stroke="black" points="424.208,-196 361.792,-196 361.792,-160 424.208,-160 424.208,-196"/>
<text text-anchor="middle" x="393" y="-173.6" font-family="Courier,monospace" font-size="11.00">PhoneId</text>
</a>
</g>
</g>
<!-- \\PhoneId&#45;&gt;\\Telesign -->
<g id="edge2" class="edge"><title>\\PhoneId&#45;&gt;\\Telesign</title>
<path fill="none" stroke="black" d="M361.734,-181.23C317.191,-185.984 233.746,-194.889 182.602,-200.347"/>
<polygon fill="none" stroke="black" points="182.086,-196.882 172.514,-201.423 182.829,-203.842 182.086,-196.882"/>
</g>
<!-- \\PhoneIdTest -->
<g id="node4" class="node"><title>\\PhoneIdTest</title>
<g id="a_node4"><a xlink:href="test.phoneid_test.html" xlink:title="PhoneIdTest" target="_parent">
<polygon fill="none" stroke="black" points="437.113,-142 348.887,-142 348.887,-106 437.113,-106 437.113,-142"/>
<text text-anchor="middle" x="393" y="-119.6" font-family="Courier,monospace" font-size="11.00">PhoneIdTest</text>
</a>
</g>
</g>
<!-- \\PHPUnit_Framework_TestCase -->
<g id="node6" class="node"><title>\\PHPUnit_Framework_TestCase</title>
<ellipse fill="none" stroke="black" cx="138" cy="-18" rx="137.502" ry="18"/>
<text text-anchor="middle" x="138" y="-12.4" font-family="Times,serif" font-size="14.00" fill="gray">\PHPUnit_Framework_TestCase</text>
</g>
<!-- \\PhoneIdTest&#45;&gt;\\PHPUnit_Framework_TestCase -->
<g id="edge3" class="edge"><title>\\PhoneIdTest&#45;&gt;\\PHPUnit_Framework_TestCase</title>
<path fill="none" stroke="black" d="M361.398,-105.874C356.849,-102.992 352.261,-99.9779 348,-97 314.547,-73.6186 313.359,-56.4345 276,-40 269.254,-37.0324 262.164,-34.4599 254.908,-32.2304"/>
<polygon fill="none" stroke="black" points="255.503,-28.7612 244.928,-29.3979 253.592,-35.4953 255.503,-28.7612"/>
</g>
<!-- \\VerifyTest -->
<g id="node5" class="node"><title>\\VerifyTest</title>
<g id="a_node5"><a xlink:href="test.verify_test.html" xlink:title="VerifyTest" target="_parent">
<polygon fill="none" stroke="black" points="434.011,-88 351.989,-88 351.989,-52 434.011,-52 434.011,-88"/>
<text text-anchor="middle" x="393" y="-65.6" font-family="Courier,monospace" font-size="11.00">VerifyTest</text>
</a>
</g>
</g>
<!-- \\VerifyTest&#45;&gt;\\PHPUnit_Framework_TestCase -->
<g id="edge4" class="edge"><title>\\VerifyTest&#45;&gt;\\PHPUnit_Framework_TestCase</title>
<path fill="none" stroke="black" d="M351.955,-58.6539C329.704,-52.5997 301.451,-45.3224 276,-40 264.487,-37.5923 252.381,-35.3027 240.329,-33.1738"/>
<polygon fill="none" stroke="black" points="240.681,-29.6829 230.231,-31.4242 239.486,-36.5801 240.681,-29.6829"/>
</g>
</g>
</svg>
